<svg xmlns="http://www.w3.org/2000/svg" xmlns:xlink="http://www.w3.org/1999/xlink" width="627.286" height="206.3608"
    viewBox="0 0 627.286 206.3608">
    <defs>
        <style>
            .cls-1 {
                fill: url(#linear-gradient);
            }

            .cls-2 {
                fill: url(#linear-gradient-2);
            }

            .cls-3 {
                fill: url(#linear-gradient-3);
            }

            .cls-4 {
                fill: url(#linear-gradient-4);
            }

            .cls-5 {
                fill: url(#linear-gradient-5);
            }

            .cls-6 {
                fill: url(#linear-gradient-6);
            }

            .cls-7 {
                fill: url(#linear-gradient-7);
            }

            .cls-8 {
                fill: url(#linear-gradient-8);
            }

            .cls-9 {
                fill: url(#linear-gradient-9);
            }

            .cls-10 {
                fill: url(#linear-gradient-10);
            }

            .cls-11 {
                fill: url(#linear-gradient-11);
            }
        </style>
        <linearGradient id="linear-gradient" x1="187.9692" y1="-851.5461" x2="192.0819" y2="-853.8782"
            gradientTransform="matrix(34.124, 0, 0, -42.1178, -5928.5308, -35819.393)" gradientUnits="userSpaceOnUse">
            <stop offset="0" stop-color="#3cc" />
            <stop offset="1" stop-color="#6116cc" />
        </linearGradient>
        <linearGradient id="linear-gradient-2" x1="186.284" y1="-925.3006" x2="190.1249" y2="-928.1917"
            gradientTransform="matrix(15.2134, 0, 0, -14.1523, -2327.6107, -12997.8179)"
            xlink:href="#linear-gradient" />
        <linearGradient id="linear-gradient-3" x1="186.9991" y1="-922.0184" x2="190.9127" y2="-924.8559"
            gradientTransform="matrix(14.9743, 0, 0, -14.4677, -2277.8137, -13259.8318)"
            xlink:href="#linear-gradient" />
        <linearGradient id="linear-gradient-4" x1="185.2307" y1="-934.7043" x2="189.0371" y2="-937.5074"
            gradientTransform="matrix(13.8329, 0, 0, -13.1686, -2068.1707, -12190.1619)"
            xlink:href="#linear-gradient" />
        <linearGradient id="linear-gradient-5" x1="185.084" y1="-974.3573" x2="191.5786" y2="-975.8201"
            gradientTransform="matrix(3.0241, 0, 0, -9.3879, 9.3734, -9136.5812)" xlink:href="#linear-gradient" />
        <linearGradient id="linear-gradient-6" x1="191.8214" y1="-993.6646" x2="193.5446" y2="-994.4611"
            gradientTransform="matrix(5.5607, 0, 0, -8.4446, -467.7625, -8363.4104)" xlink:href="#linear-gradient" />
        <linearGradient id="linear-gradient-7" x1="183.7928" y1="-993.099" x2="188.6638" y2="-995.3583"
            gradientTransform="matrix(5.5946, 0, 0, -8.4357, -487.867, -8356.1402)" xlink:href="#linear-gradient" />
        <linearGradient id="linear-gradient-8" x1="163.289" y1="-864.8658" x2="169.033" y2="-866.6426"
            gradientTransform="matrix(16.961, 0, 0, -31.5995, -2792.3413, -27235.6254)" xlink:href="#linear-gradient" />
        <linearGradient id="linear-gradient-9" x1="171.952" y1="-885.8377" x2="176.4323" y2="-888.208"
            gradientTransform="matrix(20.3754, 0, 0, -22.2362, -3417.0458, -19591.2559)"
            xlink:href="#linear-gradient" />
        <linearGradient id="linear-gradient-10" x1="177.7736" y1="-885.3817" x2="181.6122" y2="-887.5937"
            gradientTransform="matrix(22.3458, 0, 0, -22.3869, -3763.9493, -19714.0897)"
            xlink:href="#linear-gradient" />
        <linearGradient id="linear-gradient-11" x1="181.1336" y1="-865.6027" x2="184.4805" y2="-866.9698"
            gradientTransform="matrix(22.3459, 0, 0, -31.5869, -3733.5926, -27216.0623)"
            xlink:href="#linear-gradient" />
    </defs>
    <g id="Layer_2" data-name="Layer 2">
        <g id="WEBSITE">
            <g id="logo_svg_final" data-name="logo svg final">
                <path id="Path_8" data-name="Path 8" class="cls-1"
                    d="M567.3022,184.958a36.0416,36.0416,0,0,1-26.4455-11.1051c-3.0941-3.1669-2.9141-5.7938.7927-8.3135a19.8314,19.8314,0,0,0,8.0416-10.075,8.8075,8.8075,0,0,1,7.1954-6.0082,12.71,12.71,0,0,0,10.4-9.7878,10.2625,10.2625,0,0,1,7.5208-7.8425c7.9536-2.52,9.6806-11.1893,7.5553-17.615a26.9386,26.9386,0,0,0-5.6138-9.1406,282.4917,282.4917,0,0,0-29.7923-28.8924c-7.7353-6.5482-15.2561-13.3147-23.4241-19.3574A196.0646,196.0646,0,0,0,505.65,45.0912a21.881,21.881,0,0,1-7.0153-5.541,10.0828,10.0828,0,0,1-.72-11.0094,10.3163,10.3163,0,0,1,10.5078-4.7139,31.201,31.201,0,0,1,10.3392,4.5339,258.4037,258.4037,0,0,1,30.9449,21.9115,322.1233,322.1233,0,0,1,24.5079,21.95,46.7807,46.7807,0,0,0,4.0667,3.5268,6.51,6.51,0,0,0,8.6007.2145,20.2115,20.2115,0,0,0,5.3956-6.1882,62.1158,62.1158,0,0,1,10.4694-13.4027,21.4713,21.4713,0,0,1,12.3764-6.441,9.9909,9.9909,0,0,1,10.615,4.8212,10.6265,10.6265,0,0,1-.9,12.3075,19.4333,19.4333,0,0,1-3.42,3.6685,36.1407,36.1407,0,0,0-13.1691,25.1166,36.5881,36.5881,0,0,0,3.3085,19.1774,76.0456,76.0456,0,0,1,7.0537,20.6785,37.267,37.267,0,0,1-13.2075,35.5516,59.6844,59.6844,0,0,1-30.55,13.02C572.0544,184.6325,569.2092,184.778,567.3022,184.958Z" />
                <path id="Path_9" data-name="Path 9" class="cls-2"
                    d="M516.46,91.2233a13.6911,13.6911,0,0,1,7.6587,2.1942,121.714,121.714,0,0,1,18.7638,14.429,184.4065,184.4065,0,0,1,16.5887,16.9487,16.7769,16.7769,0,0,1,4.8939,9.7878,9.4968,9.4968,0,0,1-5.3611,9.75,9.7379,9.7379,0,0,1-11.1893-1.6926,90.867,90.867,0,0,1-9.7879-10.255A149.4381,149.4381,0,0,0,516.2,113.2076c-1.8726-1.4054-3.78-2.7341-5.5756-4.2468a10.5193,10.5193,0,0,1-4.4267-9.19A9.5734,9.5734,0,0,1,516.46,91.2233Z" />
                <path id="Path_10" data-name="Path 10" class="cls-3"
                    d="M579.9314,118.136a9.221,9.221,0,0,1-5.1467,9.3206,8.4629,8.4629,0,0,1-9.6423-1.7615,53.3371,53.3371,0,0,1-5.6865-5.7211,166.0027,166.0027,0,0,0-28.9652-26.5182,19.3264,19.3264,0,0,1-6.6133-6.6975,9.29,9.29,0,0,1,10.6877-13.5291,14.5522,14.5522,0,0,1,5.0394,2.2976A180.1637,180.1637,0,0,1,576.7033,110.32,12.4227,12.4227,0,0,1,579.9314,118.136Z" />
                <path id="Path_11" data-name="Path 11" class="cls-4"
                    d="M504.118,112.415a14.5513,14.5513,0,0,1,8.4246,2.7724,135.3131,135.3131,0,0,1,26.0854,22.7041,48.7544,48.7544,0,0,1,6.127,7.4826,11.4881,11.4881,0,0,1-1.4743,14.6818,9.1023,9.1023,0,0,1-12.1275.8616,44.2926,44.2926,0,0,1-7.7353-8.4552,110.4374,110.4374,0,0,0-21.5554-19.3957,26.9093,26.9093,0,0,1-5.4683-4.6411,9.2786,9.2786,0,0,1-1.6926-10.5077A10.0291,10.0291,0,0,1,504.118,112.415Z" />
                <path id="Path_12" data-name="Path 12" class="cls-5"
                    d="M584.86,9.4361c-.6127,6.8737-1.1143,14.2835-2.34,21.6244a13.4734,13.4734,0,0,1-1.0415,3.42,2.1636,2.1636,0,0,1-3.9941.2527,6.6021,6.6021,0,0,1-.9343-2.1215,141.6808,141.6808,0,0,1-3.24-24.8907,8.6348,8.6348,0,0,1,1.5317-5.4338,5.02,5.02,0,0,1,8.7424.5744A14.1105,14.1105,0,0,1,584.86,9.4361Z" />
                <path id="Path_13" data-name="Path 13" class="cls-6"
                    d="M615.8429,21.0238a8.6269,8.6269,0,0,1-1.6543,4.9283,218.5233,218.5233,0,0,1-13.1,18.243,14.9082,14.9082,0,0,1-2.9524,2.88,2.1291,2.1291,0,0,1-3.5613-1.8726,8.53,8.53,0,0,1,.36-2.2976,143.407,143.407,0,0,1,9.6079-23.03,7.4287,7.4287,0,0,1,5.3266-4.4612C613.4688,14.7972,615.9157,17.0642,615.8429,21.0238Z" />
                <path id="Path_14" data-name="Path 14" class="cls-7"
                    d="M546.7539,15.3333a6.8162,6.8162,0,0,1,6.2954,3.6341,77.0223,77.0223,0,0,1,5.5755,11.6565,104.2006,104.2006,0,0,1,4.5684,12.0893c.4327,1.5815,1.1871,3.4885-.6855,4.5684s-3.1668-.5744-4.2123-1.8a162.2934,162.2934,0,0,1-14.8234-20.51,8.3254,8.3254,0,0,1-1.1488-5.0011A4.66,4.66,0,0,1,546.7539,15.3333Z" />
            </g>
            <g id="logo_complet_parfait" data-name="logo complet parfait">
                <g id="Calque_1" data-name="Calque 1">
                    <path id="Path_22" data-name="Path 22" class="cls-8"
                        d="M64.95,165.4053a5.4034,5.4034,0,0,1-2.1559,4.155,6.1538,6.1538,0,0,1-3.6914,1.3862,5.1124,5.1124,0,0,1-4.1549-2.1559L23.24,129.8729,11.6987,140.3384v24.1631a5.8513,5.8513,0,0,1-11.6948.4249q-.0076-.2124,0-.4249V56.0047a5.8513,5.8513,0,0,1,11.6948-.425q.0076.2126,0,.425v70.0234L55.0966,86.785a5.3875,5.3875,0,0,1,3.6953-1.5318,4.81,4.81,0,0,1,3.8293,1.8457,5.9467,5.9467,0,0,1,1.6925,3.6954,4.955,4.955,0,0,1-1.9989,3.8294l-30.78,27.8546,32.01,39.3964A5.143,5.143,0,0,1,64.95,165.4053Z" />
                    <path id="Path_23" data-name="Path 23" class="cls-9"
                        d="M155.2034,89.86a33.1226,33.1226,0,0,1,13.621,13.464,42.9294,42.9294,0,0,1,4.9246,21.161v40.0241a5.7708,5.7708,0,0,1-5.6933,5.8474c-.0514.0007-.1026.0007-.154,0a5.8277,5.8277,0,0,1-4.308-1.6927,5.6483,5.6483,0,0,1-1.6927-4.1549V124.4851a27.2422,27.2422,0,0,0-7.6166-20.8509,27.9281,27.9281,0,0,0-19.9126-7.1571,31.0188,31.0188,0,0,0-13.621,2.9256,24.0356,24.0356,0,0,0-9.6194,8.08,19.8176,19.8176,0,0,0-3.5384,11.4652V164.517a5.5487,5.5487,0,0,1-5.8473,5.8473,5.9846,5.9846,0,0,1-4.308-1.616,5.5833,5.5833,0,0,1-1.6927-4.2313V92.1691a5.794,5.794,0,0,1,5.5636-6.0154q.2184-.0084.4371,0a5.59,5.59,0,0,1,4.2313,1.6926,5.9965,5.9965,0,0,1,1.616,4.308v5.231a35.9382,35.9382,0,0,1,12.3115-8.9262,38.0336,38.0336,0,0,1,15.7-3.2319A41.3132,41.3132,0,0,1,155.2034,89.86Z" />
                    <path id="Path_24" data-name="Path 24" class="cls-10"
                        d="M267.7019,91.0166a40.9363,40.9363,0,0,1,15.39,15.4667,43.3255,43.3255,0,0,1,5.6175,21.854v36.1759a5.6522,5.6522,0,0,1-1.6926,4.1549,5.8319,5.8319,0,0,1-4.308,1.6927,5.9846,5.9846,0,0,1-4.308-1.616,5.5725,5.5725,0,0,1-1.6927-4.2314v-9.2325a38.0883,38.0883,0,0,1-13.6976,11.6182,39.7638,39.7638,0,0,1-18.3119,4.2313,40.53,40.53,0,0,1-36.0878-21.0078,43.8576,43.8576,0,0,1-5.4645-21.7776,43.3249,43.3249,0,0,1,5.6176-21.8539,40.8829,40.8829,0,0,1,15.39-15.4668,45.0181,45.0181,0,0,1,43.5511,0Zm-5.924,65.16a29.9724,29.9724,0,0,0,11.1587-11.4651,34.9738,34.9738,0,0,0,0-32.7792,31.0177,31.0177,0,0,0-54.17,0,34.9743,34.9743,0,0,0,0,32.7792,29.7585,29.7585,0,0,0,11.2354,11.4651,31.1385,31.1385,0,0,0,15.9262,4.1549,30.5284,30.5284,0,0,0,15.85-4.1589Z" />
                    <path id="Path_25" data-name="Path 25" class="cls-11"
                        d="M384.0372,91.0166a40.9128,40.9128,0,0,1,15.39,15.4667,43.33,43.33,0,0,1,5.6178,21.854,43.857,43.857,0,0,1-5.4645,21.7775,40.53,40.53,0,0,1-36.0875,21.0079,39.7632,39.7632,0,0,1-18.3119-4.2313,38.0411,38.0411,0,0,1-13.6977-11.6183v45.0827a5.7938,5.7938,0,0,1-5.5794,6.0007c-.14.0051-.281.0051-.4212,0a5.59,5.59,0,0,1-4.2314-1.6927,5.9845,5.9845,0,0,1-1.6159-4.308V165.8917a4.59,4.59,0,0,1-.1534-1.3862V128.3413a43.3306,43.3306,0,0,1,5.6178-21.854,40.8818,40.8818,0,0,1,15.39-15.4667,45.0187,45.0187,0,0,1,43.5514,0Zm-5.8473,65.16a29.78,29.78,0,0,0,11.2351-11.4651,34.9686,34.9686,0,0,0,0-32.7792A30.3886,30.3886,0,0,0,378.19,100.3908,30.7123,30.7123,0,0,0,362.26,96.16a30.3443,30.3443,0,0,0-27.0083,15.7731,33.0678,33.0678,0,0,0-4.0781,16.39,34,34,0,0,0,.1534,3.8294,1.71,1.71,0,0,1,.1533.7659,30.889,30.889,0,0,0,10.0787,19.6981,29.83,29.83,0,0,0,20.6977,7.693,31.1442,31.1442,0,0,0,15.9335-4.136Z" />
                </g>
            </g>
        </g>
    </g>
</svg>